<?xml version="1.0" standalone="no"?>
<!DOCTYPE svg PUBLIC "-//W3C//DTD SVG 20010904//EN"
 "http://www.w3.org/TR/2001/REC-SVG-20010904/DTD/svg10.dtd">
<svg version="1.0" xmlns="http://www.w3.org/2000/svg"
 width="460.000000pt" height="460.000000pt" viewBox="0 0 460.000000 460.000000"
 preserveAspectRatio="xMidYMid meet">
<metadata>
Created by potrace 1.14, written by Peter Selinger 2001-2017
</metadata>
<g transform="translate(0.000000,460.000000) scale(0.100000,-0.100000)"
fill="#000000" stroke="none">
<path d="M70 4552 c0 -48 21 -375 40 -612 5 -69 10 -176 10 -238 l0 -112 -28
-11 c-15 -6 -42 -13 -60 -16 l-32 -6 0 -98 c0 -83 2 -97 15 -93 20 8 21 -54 1
-81 -12 -17 -11 -23 10 -51 13 -17 24 -41 24 -52 0 -14 6 -22 18 -23 14 0 13
-2 -4 -9 -22 -9 -44 -56 -37 -77 3 -7 16 -13 29 -13 17 0 24 -6 24 -19 0 -11
-5 -23 -11 -27 -6 -3 -9 -19 -6 -33 4 -20 0 -32 -14 -45 -25 -21 -21 -50 9
-54 36 -5 25 -17 -15 -17 -37 0 -38 -1 -41 -37 -4 -42 7 -47 64 -29 16 5 50
12 76 15 l46 5 2 -62 c1 -65 2 -78 15 -219 6 -74 5 -89 -9 -103 -9 -9 -16 -12
-16 -6 0 6 -6 8 -14 5 -8 -3 -17 -1 -21 5 -12 21 -32 11 -41 -21 -8 -28 -17
-35 -57 -46 -43 -12 -47 -16 -47 -44 l0 -30 48 6 c26 4 59 9 74 12 23 5 26 2
21 -15 -3 -12 -1 -21 6 -21 8 0 11 -30 9 -99 -2 -55 0 -97 4 -94 5 2 9 -24 9
-59 1 -35 3 -90 4 -123 1 -32 0 -55 -2 -49 -2 6 -30 7 -76 2 -39 -3 -78 -7
-84 -7 -8 -1 -13 -15 -13 -37 0 -31 3 -35 20 -29 11 3 28 2 37 -4 10 -6 15
-11 11 -11 -4 0 -2 -13 3 -30 9 -23 8 -33 -4 -45 -9 -8 -21 -15 -28 -15 -18 0
-38 -32 -39 -62 0 -18 5 -28 15 -28 8 0 15 7 15 16 0 8 5 12 10 9 16 -10 12
-35 -6 -35 -8 0 -12 -4 -9 -10 3 -5 19 -10 36 -10 24 0 29 4 29 24 0 13 3 32
7 42 6 16 7 16 14 -2 5 -11 7 25 6 81 l-2 100 36 3 36 3 7 -68 c16 -148 17
-224 3 -253 -8 -15 -12 -39 -10 -53 4 -21 1 -24 -20 -24 -28 -1 -58 42 -66 95
-6 32 -7 32 -26 17 -16 -14 -17 -16 -3 -11 15 5 17 0 11 -42 -7 -52 -15 -62
-55 -62 l-28 0 0 -235 c0 -223 1 -235 19 -235 10 0 34 -3 52 -6 27 -5 31 -3
19 6 -12 9 -9 10 15 6 17 -4 25 -3 19 1 -11 7 -18 35 -15 57 0 4 10 -2 20 -15
11 -13 22 -21 25 -18 4 3 -3 17 -14 32 -22 27 -26 42 -10 32 15 -9 12 8 -6 33
-14 20 -14 22 0 22 9 0 16 -6 16 -12 0 -7 5 -5 11 4 16 28 46 40 68 28 18 -9
19 -7 17 25 -2 21 1 32 7 28 6 -4 8 2 5 15 -4 16 -2 22 9 22 9 0 13 6 9 15 -4
10 1 15 17 16 12 0 17 3 10 5 -20 9 -3 35 19 28 13 -4 18 -1 17 8 -2 7 4 27
14 43 9 17 16 25 17 19 0 -7 11 -14 25 -16 13 -3 22 -1 19 3 -3 5 -1 9 4 9 5
0 13 -19 17 -42 4 -24 10 -35 12 -25 5 20 23 23 23 5 0 -7 5 -5 11 5 13 22 38
22 33 0 -2 -10 0 -25 6 -33 9 -13 13 -11 30 10 11 14 20 21 20 15 0 -5 5 -2
10 7 6 9 24 19 40 23 17 4 30 10 30 14 0 4 10 12 22 18 17 7 22 19 23 56 2 26
-1 50 -6 53 -5 3 -9 14 -9 25 0 23 -3 23 -38 5 -15 -7 -49 -16 -77 -20 -45 -6
-47 -5 -30 9 11 8 29 15 40 15 35 1 65 12 64 24 -1 6 -1 19 0 29 1 16 3 17 16
4 12 -12 20 -13 40 -4 27 13 34 37 10 37 -9 0 -12 6 -8 16 4 10 -1 17 -16 21
-11 3 -21 10 -22 17 0 6 -5 0 -11 -14 l-11 -25 -6 29 c-7 33 -37 58 -49 40 -4
-6 -15 -13 -24 -17 -14 -5 -16 -1 -11 29 5 27 2 34 -11 34 -10 0 -16 -7 -14
-17 2 -10 -4 -19 -15 -21 -12 -3 -17 3 -17 21 0 22 6 25 60 33 34 5 62 13 63
18 1 5 -14 15 -33 22 l-35 12 37 1 c20 1 38 5 40 10 2 5 17 -2 33 -15 22 -18
27 -26 17 -33 -10 -6 -10 -10 3 -21 8 -7 15 -19 15 -26 0 -8 7 -14 15 -14 8 0
15 9 15 20 0 11 -4 20 -9 20 -17 0 -21 33 -6 50 8 9 15 22 15 28 0 7 5 12 11
12 6 0 3 7 -6 16 -9 9 -14 23 -11 31 3 8 6 19 6 24 0 17 50 9 70 -11 11 -11
25 -20 31 -20 5 0 8 -4 5 -9 -3 -4 -18 -6 -32 -3 -18 3 -25 1 -20 -6 3 -6 0
-12 -6 -15 -8 -3 -3 -9 12 -15 l25 -11 -27 0 c-25 -1 -52 -21 -28 -21 6 0 8
-4 5 -10 -3 -5 -2 -10 4 -10 6 0 13 -16 17 -35 6 -36 33 -49 35 -17 0 14 2 14
8 -3 5 -11 7 -23 4 -27 -2 -5 1 -8 6 -8 6 0 11 9 11 19 0 11 7 27 17 36 14 14
14 18 2 26 -11 7 -11 9 -1 9 7 0 10 5 7 10 -3 6 1 10 10 10 12 0 16 8 13 33
-2 27 0 31 16 29 10 -2 22 1 25 6 12 18 98 62 122 62 l24 -1 -24 -19 c-18 -15
-19 -20 -7 -20 12 0 16 -9 16 -34 0 -38 16 -57 26 -32 11 28 24 6 24 -39 0
-34 -6 -50 -26 -70 -18 -18 -29 -23 -34 -15 -5 7 -11 6 -21 -6 -9 -11 -14 -42
-14 -88 0 -72 4 -84 49 -127 17 -17 18 -19 3 -25 -9 -3 -15 -9 -13 -13 6 -9
-5 -24 -29 -37 -13 -8 -19 -20 -17 -37 2 -18 -4 -30 -20 -38 -16 -9 -23 -9
-26 0 -2 6 -16 11 -31 11 -15 0 -31 4 -37 9 -5 5 -19 12 -31 16 -19 5 -23 2
-23 -14 0 -14 -6 -21 -19 -21 -11 0 -22 -8 -25 -18 -3 -9 -16 -22 -28 -27 -37
-17 -34 -35 6 -35 35 0 50 -20 26 -35 -15 -10 -12 -55 5 -61 11 -5 12 -11 5
-24 -6 -10 -10 -29 -10 -42 0 -13 -7 -34 -16 -46 -8 -12 -12 -22 -8 -22 3 0 1
-7 -6 -15 -18 -21 -9 -26 28 -16 24 7 32 6 32 -3 0 -6 -9 -12 -20 -13 -34 -3
-91 -35 -86 -49 3 -7 -4 -24 -15 -38 -20 -26 -20 -26 -1 -26 11 0 25 7 32 15
7 8 21 15 31 15 10 0 21 9 24 20 3 11 11 20 16 20 5 0 9 7 9 16 0 9 6 14 12
12 7 -3 18 1 25 8 15 15 17 28 3 19 -6 -3 -10 1 -10 10 0 8 6 18 14 21 18 7
40 114 32 156 -4 18 -9 45 -12 59 -4 16 -1 30 7 34 9 6 11 3 6 -8 -3 -10 -4
-23 -1 -31 6 -15 17 -7 102 72 20 18 41 31 48 28 7 -3 29 6 50 20 20 14 39 23
42 19 3 -3 1 -5 -4 -5 -13 0 -81 -136 -89 -175 -3 -16 -2 -23 1 -15 10 24 57
70 71 70 7 0 10 7 7 18 -5 14 -4 15 5 2 19 -26 12 -44 -44 -130 -30 -46 -55
-87 -55 -92 0 -14 18 -9 24 7 3 8 11 15 18 15 10 0 10 -2 -1 -9 -10 -6 -10
-10 -1 -16 21 -13 59 5 97 47 94 102 145 146 179 153 19 3 38 4 43 1 5 -3 14
1 21 9 7 8 19 15 26 15 8 0 14 4 14 10 0 5 -7 7 -15 4 -8 -4 -15 -1 -15 5 0
10 12 14 26 9 3 -2 10 5 15 15 12 21 29 22 29 2 0 -8 -5 -15 -12 -15 -9 0 -9
-3 0 -12 10 -10 15 -10 22 2 8 14 22 33 56 77 12 16 13 15 14 -11 0 -23 3 -27
20 -23 11 3 20 1 20 -4 0 -13 47 -11 56 2 3 6 1 16 -5 22 -6 6 -11 21 -11 33
0 29 -14 38 -30 19 -12 -15 -50 -21 -50 -9 0 15 47 60 59 56 7 -2 17 2 22 9 7
11 9 10 9 -4 0 -11 9 -30 20 -44 11 -14 17 -29 14 -34 -3 -5 2 -6 10 -3 8 3
16 -1 19 -10 4 -13 5 -12 3 1 -1 10 5 23 14 30 13 11 12 12 -7 13 -36 0 -30
20 19 59 16 12 17 9 14 -37 -2 -27 0 -56 5 -63 7 -12 9 -11 9 1 1 34 20 -16
20 -52 0 -20 5 -40 10 -43 15 -9 12 44 -5 101 -17 57 -19 74 -6 74 6 0 11 -15
13 -32 l4 -33 12 25 c11 22 12 19 7 -25 -3 -35 -2 -44 4 -30 5 11 10 34 10 52
1 33 15 51 26 33 9 -15 25 -12 25 5 0 18 16 20 23 3 3 -8 6 -6 6 5 1 20 2 20
34 8 13 -5 33 -28 45 -51 19 -40 20 -45 6 -112 -8 -38 -29 -100 -46 -136 -17
-37 -34 -87 -38 -112 -7 -42 -45 -199 -77 -317 -8 -29 -26 -64 -42 -80 -16
-15 -36 -46 -46 -68 -9 -22 -34 -76 -55 -120 -21 -44 -57 -137 -79 -205 -23
-69 -45 -134 -50 -145 -27 -60 -78 -55 554 -55 504 0 575 2 575 15 0 8 -5 15
-12 15 -6 0 -9 3 -6 6 3 3 -5 17 -18 31 -29 32 -30 43 -4 43 11 0 20 -4 20
-10 0 -5 5 -10 12 -10 7 0 5 6 -4 18 -9 9 -19 27 -22 39 -4 12 -20 33 -35 46
-31 26 -50 103 -23 92 7 -3 18 -5 23 -5 6 0 8 -4 5 -8 -2 -4 4 -13 15 -20 16
-10 19 -10 19 3 0 23 27 7 50 -30 21 -35 88 -91 97 -82 3 3 -9 26 -26 51 -38
55 -39 61 -4 39 l28 -18 -25 40 c-13 22 -34 54 -47 71 -13 17 -23 36 -23 42 0
7 -5 12 -11 12 -6 0 -9 6 -6 14 6 14 -27 56 -43 56 -6 0 -9 4 -7 8 1 5 -21 30
-49 55 -29 26 -57 61 -64 77 -7 17 -16 30 -20 30 -8 0 -24 76 -21 98 1 6 -3
12 -9 12 -5 0 -10 8 -10 18 1 16 1 16 11 -1 6 -9 15 -14 21 -11 8 5 9 1 5 -10
-7 -17 57 -96 79 -96 9 0 117 -124 139 -161 6 -9 16 -26 23 -38 9 -15 9 -21 1
-21 -18 0 18 -49 82 -112 33 -32 61 -58 63 -58 3 0 -2 14 -11 30 -25 52 -10
52 47 0 56 -52 128 -99 102 -68 -10 13 -10 17 4 22 20 7 18 8 68 -57 34 -46
48 -49 25 -5 -9 17 -8 19 9 14 14 -5 21 -1 25 14 3 13 0 23 -9 27 -8 3 -14 11
-14 19 0 8 -5 14 -11 14 -6 0 -28 14 -50 31 -50 40 -143 89 -169 89 -20 0 -58
46 -46 57 13 14 76 5 123 -17 103 -48 135 -57 127 -36 -5 14 -2 14 26 0 39
-20 53 -9 20 16 -14 11 -20 20 -15 20 21 0 130 -31 139 -41 6 -5 17 -9 25 -8
11 0 12 2 3 6 -6 2 -10 8 -8 12 3 4 -16 13 -42 19 -26 7 -69 20 -95 29 -27 9
-61 13 -78 9 -25 -5 -42 2 -90 34 -63 44 -70 51 -39 43 43 -11 17 8 -57 42
-61 29 -82 34 -95 26 -14 -9 -18 -8 -18 3 0 7 -20 24 -45 37 -25 13 -45 29
-45 35 0 7 -15 15 -32 19 -39 8 -118 94 -117 128 0 22 0 22 17 -3 29 -43 70
-85 76 -79 10 10 -21 98 -46 132 -40 52 -55 90 -47 117 4 14 7 19 8 13 1 -7 8
-13 16 -13 20 0 19 33 -1 76 -9 18 -14 39 -11 46 3 8 9 3 15 -12 9 -21 11 -17
11 34 1 55 2 58 16 40 14 -19 14 -19 15 1 1 17 5 15 29 -12 15 -18 33 -33 39
-33 6 0 19 -11 28 -25 23 -35 45 -33 38 4 -6 28 9 51 21 31 3 -5 12 -10 18
-10 7 0 3 8 -9 18 -11 9 -28 29 -37 44 -13 22 -14 28 -3 37 10 8 17 7 26 -4
18 -21 29 -19 42 10 9 20 14 22 25 13 10 -8 20 -8 38 0 14 6 32 9 40 6 11 -4
15 0 15 16 0 16 4 20 16 16 9 -3 18 -6 20 -6 2 0 4 -7 4 -15 0 -8 8 -15 19
-15 10 0 31 -15 47 -32 33 -38 94 -49 94 -18 0 26 79 18 102 -9 9 -12 19 -21
23 -21 3 0 13 -7 22 -15 31 -32 25 -4 -9 37 -19 24 -43 58 -52 76 -9 17 -21
32 -26 32 -15 0 -90 70 -90 84 0 6 5 4 10 -4 8 -12 10 -11 10 7 0 37 -81 70
-94 38 -3 -8 -11 -15 -18 -14 -10 0 -10 2 0 6 20 8 -6 33 -34 33 -15 0 -24 6
-24 15 0 8 7 15 15 15 8 0 15 7 15 15 0 23 41 19 47 -5 6 -24 8 -24 37 -3 19
14 21 21 12 40 -8 17 -17 22 -31 19 -21 -6 -55 19 -51 37 2 7 1 9 -1 5 -3 -5
-12 -8 -20 -8 -11 0 -14 7 -9 25 4 14 2 25 -4 25 -5 0 -10 -6 -11 -12 0 -7 -4
-3 -9 9 -7 17 -18 23 -38 23 -31 0 -68 -29 -41 -31 8 -1 19 -2 24 -4 6 -1 14
-3 19 -3 6 -1 1 -8 -9 -16 -11 -8 -25 -12 -32 -9 -7 3 -13 3 -13 -1 0 -3 24
-17 53 -30 44 -22 48 -26 25 -26 -16 0 -28 4 -28 9 0 5 -12 12 -27 16 -16 3
-55 30 -88 60 -54 49 -62 53 -80 41 -17 -11 -22 -11 -33 0 -17 18 -33 18 -26
0 4 -9 -4 -16 -24 -20 -31 -7 -82 7 -82 23 0 24 21 61 35 61 18 0 19 9 4 30
-6 8 -12 11 -15 5 -2 -5 -13 -25 -24 -43 -17 -28 -23 -32 -35 -22 -12 10 -19
10 -32 -1 -10 -8 -14 -9 -10 -2 4 6 3 14 -1 17 -5 3 -9 21 -10 41 -1 21 3 33
8 30 6 -4 8 -10 5 -15 -3 -4 -1 -19 4 -32 10 -23 10 -23 10 -1 1 17 5 21 19
17 13 -5 14 -4 3 4 -17 12 -8 42 13 42 8 0 17 -6 19 -12 3 -7 6 -1 6 14 1 21
7 29 26 34 14 3 25 10 25 15 0 5 6 9 13 9 18 0 147 129 147 148 1 12 38 52 49
52 6 0 11 5 11 10 0 6 8 10 18 10 16 1 16 1 -1 14 -15 12 -15 15 -3 25 8 7 12
20 9 28 -4 10 -2 14 5 9 6 -3 13 3 17 14 3 11 10 20 16 20 5 0 8 8 7 18 -4 24
41 137 63 161 10 11 19 25 19 30 0 16 60 100 78 110 10 5 26 32 36 60 10 28
22 51 27 51 5 0 9 9 9 19 0 11 11 42 26 68 45 85 40 172 -12 201 -20 11 -74
-7 -74 -25 0 -7 -7 -13 -15 -13 -9 0 -20 -11 -26 -24 -22 -48 -99 -86 -175
-86 -33 0 -47 5 -62 25 -11 14 -25 25 -32 25 -12 0 -60 45 -60 56 0 2 12 2 28
-1 15 -3 21 -2 14 1 -6 3 -10 10 -6 15 3 5 -1 9 -8 9 -18 0 -43 53 -27 59 6 2
-3 16 -21 32 -18 17 -30 36 -27 44 3 7 -1 19 -9 26 -9 8 -13 22 -9 43 6 33 16
169 16 223 0 24 -9 40 -45 73 -25 23 -55 58 -67 76 -11 19 -27 34 -35 34 -9 0
-13 4 -10 9 9 14 -45 32 -114 38 -170 13 -334 -71 -370 -191 -14 -44 -14 -216
-1 -229 10 -10 2 -47 -10 -47 -12 0 -30 -37 -36 -72 -3 -21 1 -34 13 -42 21
-16 9 -39 -16 -31 -13 4 -22 -1 -30 -14 -11 -22 -4 -72 13 -82 12 -8 -1 -31
-13 -24 -5 3 -11 1 -15 -5 -3 -5 -1 -10 4 -10 19 0 12 -38 -11 -63 -19 -20
-26 -22 -42 -13 -27 16 -65 59 -66 74 0 7 -6 12 -12 11 -42 -5 -70 2 -64 16 4
10 -1 15 -14 15 -11 0 -20 -7 -20 -15 0 -8 -9 -29 -20 -47 -21 -35 -26 -53
-11 -44 24 15 28 -73 5 -114 l-13 -25 -1 27 c0 20 -4 26 -15 22 -10 -4 -15 0
-15 15 0 23 -10 27 -26 11 -7 -7 -15 -2 -24 15 -7 14 -17 25 -22 25 -4 0 -8 6
-8 14 0 8 -5 18 -11 22 -7 4 -9 0 -5 -12 4 -15 1 -19 -18 -19 -20 0 -22 3 -14
18 15 28 3 31 -18 4 -11 -13 -25 -22 -33 -19 -8 3 -11 0 -7 -7 4 -6 3 -11 -3
-11 -5 0 -13 5 -16 10 -3 6 -1 10 4 10 6 0 11 8 11 18 0 12 -10 7 -35 -20 -35
-38 -44 -58 -24 -58 5 0 8 4 5 9 -3 5 7 11 22 14 28 5 47 -2 25 -10 -7 -3 -13
-11 -13 -19 0 -8 -10 -14 -22 -15 -22 0 -22 -1 -3 -9 18 -8 17 -9 -8 -9 -24
-1 -27 -4 -22 -21 5 -16 2 -20 -19 -20 -14 0 -28 -5 -32 -11 -5 -8 -9 -8 -14
1 -6 9 -15 8 -38 -4 -17 -9 -40 -16 -52 -16 -18 0 -24 -9 -17 -26 1 -3 -10
-12 -25 -20 -16 -8 -28 -19 -28 -23 0 -12 28 -22 32 -12 2 4 19 11 38 14 23 5
30 4 21 -2 -23 -15 30 -36 55 -23 22 12 74 4 74 -10 0 -6 -11 -7 -24 -4 -30 7
-59 -3 -53 -19 3 -7 -14 -19 -39 -30 -29 -12 -43 -23 -40 -32 3 -7 1 -13 -4
-13 -6 0 -10 -5 -10 -11 0 -7 14 -8 40 -4 26 4 40 3 40 -4 0 -6 -6 -11 -13
-11 -7 0 -21 -6 -31 -13 -20 -14 5 -13 169 12 76 11 88 4 36 -22 -23 -11 -41
-24 -41 -28 0 -24 31 -13 145 48 28 15 125 31 131 22 9 -15 -28 -40 -50 -34
-15 5 -17 4 -8 -3 11 -7 6 -13 -20 -22 -23 -9 -28 -14 -16 -17 9 -2 31 3 48
12 l31 16 -7 -26 c-6 -23 -3 -25 26 -25 18 0 29 -4 25 -10 -3 -5 0 -7 8 -4 21
7 93 -24 81 -36 -11 -11 -107 -14 -153 -4 l-34 7 24 13 24 13 -23 1 c-33 0
-112 -21 -112 -30 0 -4 -9 -10 -21 -13 -13 -4 -18 -10 -14 -17 5 -9 28 -10 78
-5 61 6 69 5 64 -9 -7 -18 18 -23 28 -6 3 5 23 10 43 10 l37 -1 -30 -24 c-24
-20 -26 -25 -12 -25 26 0 57 18 57 33 0 11 25 21 115 44 20 6 20 6 0 -13 -11
-11 -36 -28 -55 -38 -50 -28 -71 -64 -31 -53 13 3 18 0 17 -11 -3 -18 -51 -35
-82 -27 -11 2 -29 -1 -39 -9 -29 -21 -1 -29 55 -16 52 13 90 9 55 -6 -26 -10
-45 -29 -45 -44 0 -7 -8 -10 -20 -7 -12 3 -33 -1 -48 -9 -29 -15 -138 -10
-157 7 -5 5 -17 9 -27 9 -10 0 -18 5 -18 10 0 6 -7 10 -15 10 -9 0 -12 -6 -9
-17 4 -13 3 -14 -3 -5 -5 7 -30 15 -54 18 -44 5 -173 43 -167 49 7 7 114 -18
120 -28 6 -9 8 -9 8 1 0 6 10 12 23 12 18 0 19 -2 7 -10 -12 -8 -10 -10 8 -10
13 0 20 4 17 10 -4 6 8 10 27 11 l33 1 -30 8 c-16 4 -49 8 -72 9 -31 1 -43 5
-43 16 0 8 -10 16 -22 17 -43 3 -73 7 -113 16 l-40 10 38 1 c20 0 37 5 37 9 0
10 -82 32 -123 32 -25 0 -29 3 -17 11 12 8 10 9 -8 4 -13 -4 -29 -2 -36 4 -11
9 -123 30 -163 31 -7 0 -21 9 -31 20 -11 12 -36 23 -56 27 -31 5 -40 2 -59
-21 -28 -32 -47 -19 -47 30 0 18 -5 36 -10 39 -6 4 -8 11 -5 16 4 5 -1 9 -10
9 -9 0 -40 11 -68 24 -29 13 -62 26 -75 30 -12 4 -22 11 -22 16 0 10 60 -6 74
-20 5 -5 18 -10 28 -10 10 0 18 -4 18 -9 0 -5 8 -8 18 -7 35 2 39 18 31 121
-4 55 -8 129 -9 164 l0 63 48 -7 c26 -4 52 -10 57 -15 6 -4 31 -10 58 -13 38
-5 47 -4 47 8 0 8 -3 15 -7 16 -56 6 -98 13 -173 28 l-35 7 -11 144 c-7 80
-17 214 -24 298 -7 84 -10 155 -7 159 4 3 21 0 39 -7 35 -13 45 -17 121 -49
42 -18 48 -18 45 -5 -2 9 -19 22 -38 28 -19 6 -35 17 -35 25 0 22 -34 39 -44
22 -8 -12 -15 -12 -48 0 -34 13 -39 19 -45 59 -10 68 -9 208 1 191 8 -12 12
-12 26 3 16 15 19 15 47 -9 19 -16 42 -25 63 -25 18 0 40 -7 48 -15 8 -8 17
-12 20 -9 2 3 20 -4 38 -15 19 -12 41 -24 49 -27 8 -4 23 -14 32 -22 10 -8 18
-12 18 -9 0 10 63 -15 89 -35 29 -22 66 -25 58 -4 -4 9 2 17 14 21 15 5 17 10
10 19 -6 7 -8 15 -5 19 8 8 -48 42 -181 112 -60 31 -147 77 -193 102 -80 43
-85 45 -145 38 -34 -4 -82 -11 -107 -17 -110 -25 -106 -26 -118 39 -12 58 -26
195 -38 370 -3 50 -7 109 -9 130 -1 21 -8 120 -16 221 -7 100 -16 182 -21 182
-4 0 -8 -21 -8 -47 0 -80 38 -641 56 -826 3 -35 1 -57 -4 -53 -5 3 -12 32 -16
63 -15 144 -31 318 -55 613 -7 80 -14 169 -17 198 l-5 52 -65 0 -64 0 0 -48z
m240 -994 c0 -19 -2 -20 -10 -8 -13 19 -13 30 0 30 6 0 10 -10 10 -22z m203
-89 c1 -24 -2 -45 -8 -46 -5 -1 -9 5 -7 14 2 8 -1 12 -7 8 -6 -3 -11 1 -11 9
0 9 -4 16 -10 16 -5 0 -9 -5 -7 -12 4 -21 -29 -20 -54 2 l-24 21 28 -5 c46
-10 77 3 77 32 0 45 21 9 23 -39z m-373 -113 c0 -18 -19 -31 -28 -21 -4 4 -1
10 7 13 11 4 11 6 0 13 -11 7 -10 9 4 9 9 0 17 -6 17 -14z m375 -313 c4 -21 3
-33 -4 -33 -6 0 -11 13 -11 29 0 16 -3 38 -6 48 -4 14 -4 15 4 3 5 -8 13 -30
17 -47z m48 -160 c3 -5 8 -51 12 -105 6 -78 5 -96 -6 -96 -38 2 -59 -3 -56
-14 1 -8 -10 -14 -28 -15 -29 -2 -29 -2 -5 7 23 7 22 8 -12 9 -20 1 -43 4 -52
7 -23 9 -7 34 21 34 40 0 103 22 103 36 0 20 -25 23 -83 10 -53 -12 -56 -12
-61 8 -3 12 -6 37 -6 58 0 36 0 36 53 43 28 4 61 11 72 16 26 10 43 11 48 2z
m1374 -145 c-3 -8 -6 -5 -6 6 -1 11 2 17 5 13 3 -3 4 -12 1 -19z m877 -115
c20 -59 20 -100 1 -120 -9 -9 -13 -23 -10 -34 8 -26 -3 -59 -20 -59 -8 0 -17
-4 -20 -10 -7 -12 22 -70 35 -70 13 0 13 -25 1 -48 -5 -9 -17 -55 -26 -102
-25 -123 -48 -179 -51 -124 -1 13 2 24 6 24 5 0 8 20 8 44 0 24 5 54 12 65 6
12 10 40 9 64 -1 34 -8 48 -37 73 -21 19 -32 36 -28 43 6 9 11 9 21 1 9 -8 14
-5 18 9 3 14 -3 25 -19 36 -16 11 -24 25 -24 45 0 18 -5 29 -12 28 -7 -2 -13
8 -14 21 -1 24 -1 24 13 5 14 -18 15 -18 8 5 -5 17 -4 22 6 19 8 -3 17 -19 20
-38 7 -31 26 -53 40 -45 3 3 7 33 8 67 1 64 20 148 32 148 4 0 14 -21 23 -47z
m-2437 -5 c-3 -7 -5 -2 -5 12 0 14 2 19 5 13 2 -7 2 -19 0 -25z m1309 -66
c-12 -11 -18 7 -10 30 l8 23 4 -23 c2 -13 1 -26 -2 -30z m-256 -1 c0 -5 -13
-14 -30 -20 -16 -5 -30 -14 -30 -18 0 -4 -17 -8 -37 -9 l-37 -1 24 16 c45 30
110 49 110 32z m50 -21 c0 -5 -12 -10 -26 -10 -14 0 -23 -4 -19 -9 3 -6 21 -4
45 4 37 13 40 13 55 -8 29 -41 12 -72 -53 -95 -43 -15 -165 -26 -137 -13 40
20 68 49 71 75 1 14 -2 29 -8 32 -6 4 -1 12 13 20 29 16 59 18 59 4z m254 -15
c6 -17 -2 -45 -14 -45 -4 0 -7 14 -8 30 -1 32 12 40 22 15z m-104 -43 c0 -15
-40 -42 -62 -42 -20 0 -18 3 12 25 37 25 50 30 50 17z m-353 -8 c-3 -3 -12 -4
-19 -1 -8 3 -5 6 6 6 11 1 17 -2 13 -5z m836 -34 c-7 -28 -13 -25 -13 6 0 14
4 23 9 20 5 -3 7 -15 4 -26z m-313 -16 c0 -24 -33 -12 -35 13 -1 18 1 20 17
12 10 -5 18 -17 18 -25z m-1638 -26 c-6 -6 -19 -8 -29 -4 -14 6 -15 9 -3 16 8
5 18 6 22 4 4 -3 8 1 9 8 0 10 2 10 6 0 3 -8 1 -18 -5 -24z m2508 12 c0 -5 -4
-10 -10 -10 -5 0 -10 5 -10 10 0 6 5 10 10 10 6 0 10 -4 10 -10z m-1220 -20
c0 -12 -44 -24 -62 -17 -8 3 -4 9 12 15 32 14 50 14 50 2z m450 -70 c39 -37
62 -90 37 -90 -16 0 -57 37 -57 50 0 6 -5 9 -12 8 -6 -2 -20 15 -31 37 -11 22
-23 41 -28 43 -4 2 -6 9 -3 16 5 14 18 6 94 -64z m-320 39 c0 -9 -51 -18 -67
-12 -26 10 -12 20 27 19 22 0 40 -4 40 -7z m-1520 -9 c0 -5 -6 -10 -14 -10 -8
0 -18 5 -21 10 -3 6 3 10 14 10 12 0 21 -4 21 -10z m153 -37 c3 -10 2 -38 -3
-63 -8 -49 -11 -42 -15 33 -2 46 9 64 18 30z m387 -43 c0 -5 -5 -10 -11 -10
-5 0 -7 5 -4 10 3 6 8 10 11 10 2 0 4 -4 4 -10z m1385 -80 c3 -5 2 -10 -4 -10
-5 0 -13 5 -16 10 -3 6 -2 10 4 10 5 0 13 -4 16 -10z m-1755 -52 c0 -5 -7 -8
-15 -8 -10 0 -15 10 -15 33 l1 32 14 -25 c8 -14 14 -28 15 -32z m1785 32 c3
-5 1 -10 -4 -10 -6 0 -11 5 -11 10 0 6 2 10 4 10 3 0 8 -4 11 -10z m-1451 -55
c-4 -8 -11 -15 -18 -15 -6 0 -4 -5 4 -10 12 -8 11 -10 -7 -10 -13 0 -23 5 -23
10 0 6 -10 10 -22 11 -14 0 -5 6 22 13 25 8 46 14 47 15 1 0 0 -6 -3 -14z
m2227 -28 c-13 -13 -26 -3 -16 12 3 6 11 8 17 5 6 -4 6 -10 -1 -17z m-1716 -7
c-6 -10 -45 -1 -45 10 0 4 11 5 25 2 14 -2 23 -8 20 -12z m198 -57 c-7 -2 -21
-2 -30 0 -10 3 -4 5 12 5 17 0 24 -2 18 -5z m-663 -37 c0 -2 -7 -9 -15 -16
-13 -11 -14 -10 -9 4 5 14 24 23 24 12z m140 -10 c0 -2 -9 -6 -20 -9 -11 -3
-20 -1 -20 4 0 5 9 9 20 9 11 0 20 -2 20 -4z m-190 -33 c-1 -25 -22 -37 -62
-34 -52 3 -57 7 -32 26 20 15 94 21 94 8z m1628 -53 c18 -1 64 -49 57 -60 -9
-15 -76 56 -74 79 1 13 2 12 6 -1 2 -10 8 -18 11 -18z m-1548 -60 c0 -5 -7
-10 -15 -10 -8 0 -15 5 -15 10 0 6 7 10 15 10 8 0 15 -4 15 -10z m1630 -9 c0
-5 8 -12 18 -15 10 -3 7 -4 -7 -3 -24 2 -44 27 -22 27 6 0 11 -4 11 -9z
m-1763 -37 c-3 -3 -12 -4 -19 -1 -8 3 -5 6 6 6 11 1 17 -2 13 -5z m919 -3 c-3
-5 -15 -7 -26 -4 -28 7 -25 13 6 13 14 0 23 -4 20 -9z m1016 -33 c-9 -9 -12
-7 -12 12 0 19 3 21 12 12 9 -9 9 -15 0 -24z m-2185 -110 c-3 -7 -5 -2 -5 12
0 14 2 19 5 13 2 -7 2 -19 0 -25z m333 -17 c0 -17 -25 -30 -40 -21 -13 8 -12
10 3 10 9 0 17 5 17 10 0 6 5 10 10 10 6 0 10 -4 10 -9z m-65 -41 c3 -5 -1
-10 -9 -10 -9 0 -16 5 -16 10 0 6 4 10 9 10 6 0 13 -4 16 -10z m2385 -138
c-20 -7 -40 7 -40 29 l0 22 26 -24 c14 -13 20 -25 14 -27z m-1384 -9 c-5 -12
-10 -13 -17 -6 -8 8 -7 16 2 26 16 17 24 5 15 -20z m1088 2 c18 -14 45 -25 59
-25 15 0 27 -4 27 -10 0 -6 -26 -10 -57 -10 -36 0 -53 4 -45 9 10 6 6 15 -20
35 -25 19 -29 26 -15 26 10 0 33 -11 51 -25z m-1138 -13 c6 -16 8 -35 5 -62 0
-5 -6 -10 -12 -10 -6 0 -8 7 -5 15 8 21 -14 54 -32 48 -12 -5 -12 -3 -1 15 14
22 33 20 45 -6z m-1036 -17 c10 -12 10 -15 -2 -15 -8 0 -15 7 -15 15 0 8 1 15
2 15 2 0 8 -7 15 -15z m1120 -5 c0 -5 -6 -13 -14 -17 -7 -4 -15 -14 -17 -22
-4 -10 -7 -10 -18 3 -11 13 -11 16 2 16 8 0 17 7 21 15 6 16 26 21 26 5z
m1354 -19 c7 -11 -42 -21 -63 -13 -12 5 -10 8 9 13 36 10 48 10 54 0z m-2489
-11 c3 -5 -1 -10 -9 -10 -9 0 -16 5 -16 10 0 6 4 10 9 10 6 0 13 -4 16 -10z
m2591 -21 c-3 -18 -14 -37 -23 -44 -18 -13 -53 -9 -53 7 0 5 -8 8 -17 7 -31
-3 -35 1 -18 18 14 13 18 14 25 2 7 -10 11 -7 19 14 8 21 17 27 42 27 30 0 31
-2 25 -31z m-554 -196 c2 -10 1 -31 -3 -46 -6 -20 -5 -27 4 -24 7 2 14 23 17
48 4 32 7 39 13 26 4 -10 7 -32 7 -48 0 -15 9 -45 19 -66 21 -42 34 -113 21
-113 -12 0 -80 97 -80 115 0 18 -12 19 -29 3 -10 -11 -11 -7 -7 17 2 17 5 47
5 68 1 39 26 54 33 20z m81 -64 c-5 -5 -7 7 -4 29 5 34 6 35 9 8 2 -16 0 -32
-5 -37z m-92 -202 c36 -58 40 -74 23 -87 -11 -10 -14 -9 -14 8 0 11 -7 28 -16
37 -17 16 -37 85 -25 85 3 0 18 -19 32 -43z m79 -9 c0 -16 5 -37 12 -48 7 -10
9 -23 4 -27 -14 -14 -73 77 -62 96 3 4 14 7 25 7 16 0 21 -7 21 -28z m-1772 2
c-7 -11 -16 -20 -20 -20 -13 0 -9 28 5 33 23 10 27 7 15 -13z m1700 -155 c-3
-3 -9 2 -12 12 -6 14 -5 15 5 6 7 -7 10 -15 7 -18z m-288 -1 c0 -8 -4 -12 -10
-9 -5 3 -10 10 -10 16 0 5 5 9 10 9 6 0 10 -7 10 -16z m140 6 c0 -5 -4 -10
-10 -10 -5 0 -10 5 -10 10 0 6 5 10 10 10 6 0 10 -4 10 -10z m65 -70 c3 -5 1
-10 -4 -10 -6 0 -11 5 -11 10 0 6 2 10 4 10 3 0 8 -4 11 -10z m10 -51 c-4 -5
-12 -9 -18 -8 -9 0 -8 2 1 6 6 2 9 10 6 15 -4 7 -2 8 5 4 6 -4 9 -12 6 -17z
m397 -71 c40 -54 43 -62 20 -49 -19 10 -62 62 -62 75 0 16 20 3 42 -26z m53
22 c3 -5 1 -10 -4 -10 -6 0 -11 5 -11 10 0 6 2 10 4 10 3 0 8 -4 11 -10z m-65
-80 c0 -5 -4 -10 -10 -10 -5 0 -10 5 -10 10 0 6 5 10 10 10 6 0 10 -4 10 -10z
m37 -25 c0 -8 -4 -12 -9 -9 -5 3 -6 10 -3 15 9 13 12 11 12 -6z"/>
<path d="M1465 2480 c-3 -5 -2 -10 4 -10 5 0 13 5 16 10 3 6 2 10 -4 10 -5 0
-13 -4 -16 -10z"/>
<path d="M488 1923 c6 -2 18 -2 25 0 6 3 1 5 -13 5 -14 0 -19 -2 -12 -5z"/>
<path d="M4421 4271 c-7 -5 -9 -11 -5 -14 5 -3 15 1 22 9 14 16 5 18 -17 5z"/>
<path d="M4417 4180 c-15 -16 -27 -36 -27 -44 0 -7 -7 -19 -15 -26 -9 -7 -14
-18 -12 -24 2 -6 1 -23 -3 -37 -5 -15 -4 -32 0 -40 10 -15 -15 -69 -32 -69 -6
0 -1 -11 12 -25 29 -31 34 -54 14 -76 -14 -16 -14 -38 1 -72 4 -9 5 -27 2 -38
-3 -12 0 -22 9 -26 17 -6 16 -89 -3 -119 -12 -19 -11 -22 3 -28 9 -3 14 -13
11 -20 -3 -8 -1 -17 6 -19 9 -3 7 -10 -4 -23 -9 -10 -14 -24 -12 -31 3 -7 -17
-23 -46 -37 -48 -23 -51 -23 -51 -5 0 14 -7 19 -26 19 -17 0 -28 6 -31 20 -3
11 -8 20 -10 20 -8 0 -201 -38 -343 -67 -69 -14 -137 -28 -152 -30 -35 -6 -35
-10 -1 -36 67 -53 144 -78 251 -81 23 0 42 -5 43 -11 0 -5 4 -1 8 9 6 15 10 3
18 -42 13 -82 -1 -105 -61 -101 -58 3 -66 1 -66 -15 0 -17 -30 -30 -43 -17 -5
5 -1 12 12 16 29 9 16 27 -14 19 -12 -3 -26 -1 -30 5 -3 6 -11 9 -16 5 -6 -3
-3 -11 7 -19 16 -11 15 -14 -9 -30 -15 -9 -33 -15 -41 -12 -11 4 -14 -1 -13
-21 2 -30 24 -52 43 -45 8 3 11 -2 7 -16 -4 -17 -8 -19 -19 -10 -20 16 -19
-15 1 -35 8 -8 15 -23 15 -33 0 -23 29 -66 30 -44 0 11 3 11 15 1 12 -10 13
-16 3 -27 -10 -12 -6 -19 20 -40 23 -17 32 -33 32 -54 0 -16 5 -29 10 -29 6 0
10 -9 10 -20 0 -17 7 -20 50 -20 45 0 50 -2 50 -23 0 -12 6 -53 14 -90 14 -68
31 -101 46 -92 5 3 19 1 32 -4 l23 -10 -22 0 c-26 -1 -30 -23 -9 -40 8 -7 18
-27 22 -44 10 -51 20 -58 79 -51 l54 7 6 -39 c3 -22 11 -48 17 -58 9 -17 28
-123 44 -251 4 -31 3 -37 -6 -25 -10 12 -11 11 -7 -7 3 -13 2 -23 -2 -23 -14
0 -41 36 -41 54 0 9 -4 14 -10 11 -5 -3 -10 0 -10 7 0 19 -23 68 -32 68 -12 0
-9 -22 7 -50 20 -36 18 -49 -5 -22 -17 21 -39 15 -25 -8 3 -5 2 -10 -4 -10 -5
0 -12 6 -14 13 -4 8 -6 7 -6 -4 -1 -12 -9 -14 -33 -11 -18 3 -35 8 -38 12 -3
4 -25 11 -50 14 -27 5 -40 4 -32 -2 10 -7 10 -11 -2 -22 -21 -17 -49 -5 -42
17 5 16 -2 18 -52 21 -31 1 -77 -1 -102 -5 l-45 -6 40 -8 c22 -4 63 -8 90 -9
l50 0 -25 -20 c-14 -11 -20 -20 -15 -19 30 4 65 -2 60 -11 -4 -6 -36 -8 -78
-5 -81 5 -92 5 -109 4 -7 -1 -48 2 -90 6 -45 5 -78 4 -78 -1 0 -21 68 -54 111
-54 25 0 49 -3 52 -7 4 -3 -21 -17 -56 -30 -80 -31 -93 -38 -89 -53 2 -8 -5
-11 -18 -7 -11 3 -18 1 -15 -3 3 -5 1 -11 -5 -15 -5 -3 -10 1 -10 9 0 10 -9
16 -25 16 -15 0 -24 -5 -23 -12 2 -8 -9 -14 -24 -16 -29 -3 -36 6 -18 24 13
13 1 54 -15 54 -19 0 -75 -49 -75 -66 0 -9 11 -14 30 -14 29 0 40 -13 20 -25
-16 -10 -12 -75 5 -81 22 -9 18 -24 -5 -24 -13 0 -22 -9 -26 -25 -8 -31 -28
-28 -32 5 -9 58 -58 64 -146 20 -65 -33 -86 -37 -86 -15 0 8 -14 17 -35 21
-42 8 -88 -2 -79 -17 4 -8 10 -7 17 0 16 16 25 14 32 -8 3 -10 18 -22 33 -26
26 -7 26 -8 6 -15 -18 -7 -40 -38 -32 -45 11 -8 108 -12 108 -5 0 6 -4 10 -10
10 -5 0 -10 10 -10 23 0 16 3 18 9 8 5 -7 14 -10 20 -7 6 4 16 -4 23 -18 11
-26 38 -36 38 -15 0 5 -3 8 -7 6 -5 -3 -9 6 -9 19 -1 13 1 22 5 19 4 -2 23 9
42 25 43 37 53 37 45 3 -5 -20 -4 -24 3 -13 15 22 27 2 13 -20 -17 -27 -15
-59 3 -66 21 -9 19 -24 -4 -24 -11 0 -22 -6 -25 -12 -3 -7 -4 11 -2 40 2 30 0
48 -5 41 -4 -8 -11 -10 -15 -6 -9 9 -33 -23 -34 -46 0 -10 -4 -15 -10 -12 -9
6 -16 -26 -10 -50 6 -26 9 -41 9 -49 1 -4 8 -5 17 -2 11 4 8 -3 -8 -23 -22
-27 -24 -28 -38 -11 -20 24 -70 33 -70 12 0 -15 45 -62 59 -62 4 0 16 -9 26
-20 10 -11 23 -20 30 -20 7 0 22 -9 35 -20 13 -11 31 -20 40 -20 9 0 32 -17
51 -38 19 -20 46 -45 61 -55 16 -9 27 -21 27 -25 -4 -22 4 -34 33 -52 17 -10
35 -17 40 -14 14 9 -2 24 -24 24 -12 0 -18 3 -15 7 4 3 1 13 -6 21 -10 13 -9
14 3 7 33 -18 58 -48 53 -61 -3 -8 -2 -14 3 -13 23 4 42 -2 48 -16 4 -11 1
-13 -12 -6 -53 27 -95 41 -104 35 -7 -5 -8 -2 -3 6 5 8 4 11 -3 6 -5 -3 -12
-2 -14 3 -1 5 -19 12 -38 16 -31 7 -33 6 -22 -8 8 -9 26 -17 40 -19 15 -2 26
-8 25 -14 -1 -6 9 -10 23 -8 19 2 24 -1 20 -12 -3 -8 -1 -14 3 -14 5 0 11 4
13 10 2 6 18 1 38 -10 19 -10 43 -22 53 -26 10 -4 16 -12 13 -19 -3 -8 2 -11
15 -8 22 6 26 23 5 23 -7 0 -19 7 -26 15 -10 12 -10 15 3 15 8 0 20 6 26 13
15 19 -5 45 -44 56 l-30 9 39 1 c30 1 37 4 32 16 -4 10 1 15 14 15 11 0 20 -4
20 -10 0 -5 9 -10 19 -10 11 0 23 -4 26 -10 10 -16 28 -12 22 4 -7 17 26 31
45 20 8 -5 7 0 -2 11 -15 18 -14 18 20 0 19 -10 48 -29 64 -42 21 -17 31 -21
36 -12 5 6 13 8 20 4 9 -6 11 -4 6 4 -5 7 -14 10 -21 7 -7 -2 -12 3 -11 12 1
11 -5 16 -18 14 -10 -2 -15 1 -12 6 3 6 0 13 -6 15 -9 4 -8 6 2 6 32 2 84 -46
85 -79 0 -8 10 -19 22 -26 13 -6 21 -13 18 -15 -2 -3 10 -13 27 -23 l31 -19
-7 26 -6 27 22 -23 c15 -14 19 -23 11 -25 -22 -6 -14 -16 37 -51 30 -20 50
-41 50 -52 0 -11 5 -19 12 -19 6 0 9 -2 7 -5 -8 -7 -49 7 -44 15 8 12 -23 33
-36 24 -7 -4 -9 -3 -6 3 4 6 0 16 -9 23 -13 12 -14 9 -9 -18 3 -18 3 -32 -1
-32 -10 0 -33 27 -28 33 3 3 -9 15 -26 27 -37 26 -33 39 4 14 15 -9 29 -14 32
-11 3 3 -9 13 -27 22 -31 16 -33 16 -46 -1 -9 -13 -10 -21 -2 -31 16 -18 1
-17 -17 2 -20 20 -40 20 -24 0 7 -9 10 -18 7 -21 -3 -3 -13 8 -22 26 -13 24
-21 30 -38 26 -12 -3 -16 -3 -9 0 10 5 10 9 1 20 -18 22 6 16 26 -6 19 -20 41
-28 30 -10 -3 6 -1 10 4 10 6 0 11 -7 11 -15 0 -8 5 -15 10 -15 6 0 10 4 10 8
0 14 -23 32 -42 32 -10 0 -17 6 -16 12 2 7 -3 12 -9 10 -7 -1 -13 2 -13 8 0 6
-3 9 -8 8 -4 -2 -18 7 -32 20 -13 12 -29 22 -34 22 -6 0 4 -14 23 -30 26 -23
31 -34 23 -42 -8 -8 -15 -8 -24 -1 -9 8 -17 7 -26 -3 -9 -10 -10 -14 -1 -14
20 0 98 -42 103 -57 3 -7 1 -13 -5 -13 -6 0 -8 -4 -5 -8 3 -5 -10 -4 -29 2
-20 6 -35 18 -35 26 0 13 -1 13 -10 0 -9 -13 -11 -13 -19 0 -6 8 -13 11 -17 7
-4 -4 0 -15 9 -25 10 -10 14 -22 10 -26 -8 -8 45 -56 62 -56 7 0 20 -11 29
-25 17 -26 12 -32 -14 -15 -9 5 -19 5 -27 -2 -10 -8 -25 -3 -59 22 -25 17 -47
30 -49 28 -3 -2 13 -22 35 -43 47 -46 51 -61 10 -40 -36 19 -67 20 -52 3 5 -7
9 -25 7 -41 -2 -17 1 -27 10 -27 7 0 15 -6 18 -14 4 -10 -1 -12 -16 -9 -21 4
-21 4 3 -16 19 -16 20 -20 6 -14 -15 5 -17 3 -11 -7 6 -10 4 -12 -9 -7 -21 8
-35 -21 -15 -34 12 -8 12 -11 -1 -19 -8 -5 -23 -10 -32 -10 -21 0 -24 -16 -5
-23 6 -2 9 -8 5 -12 -4 -4 -25 12 -48 36 -41 44 -56 42 -20 -3 10 -14 17 -27
15 -30 -11 -10 18 -80 43 -103 22 -21 23 -25 7 -20 -15 5 -13 0 10 -20 l29
-27 -40 3 -41 4 7 -32 c4 -18 6 -34 4 -36 -4 -4 24 -146 31 -158 3 -4 -2 -12
-10 -19 -8 -7 -12 -17 -8 -23 3 -5 -1 -16 -11 -22 -9 -7 -14 -19 -10 -29 6
-14 49 -16 440 -16 l434 0 0 1944 c0 1259 -3 1947 -10 1951 -6 4 -6 12 1 23 8
13 7 27 -4 55 -10 22 -12 37 -6 37 6 0 3 7 -5 16 -9 8 -14 19 -11 24 3 5 1 20
-5 34 -7 20 -17 26 -39 26 -29 0 -41 14 -41 49 0 10 -8 25 -18 34 -18 16 -20
15 -45 -13z m-43 -789 c3 -5 -9 -20 -27 -34 -29 -22 -35 -23 -52 -11 -19 14
-15 17 21 15 14 -2 23 5 27 18 5 22 22 28 31 12z m-124 -31 c0 -5 -4 -10 -10
-10 -5 0 -10 5 -10 10 0 6 5 10 10 10 6 0 10 -4 10 -10z m-100 -85 c0 -34 32
-125 41 -119 5 3 19 -2 31 -11 29 -19 35 -95 8 -95 -9 0 -21 5 -28 12 -9 9
-12 -5 -12 -65 0 -59 -3 -77 -14 -77 -8 0 -17 7 -20 16 -3 8 -2 12 4 9 6 -3
10 1 10 10 0 24 -29 75 -43 75 -6 0 -1 9 12 19 23 18 24 21 13 59 -7 21 -12
50 -12 63 0 14 -7 34 -15 45 -8 12 -12 24 -8 27 3 4 0 13 -7 22 -9 10 -9 15
-1 15 7 0 9 10 5 28 -7 27 -7 27 15 8 11 -11 21 -29 21 -41z m197 35 c1 -11
-4 -20 -13 -20 -16 0 -16 2 -8 24 8 22 19 20 21 -4z m-307 -195 c0 -8 -4 -15
-10 -15 -5 0 -7 7 -4 15 4 8 8 15 10 15 2 0 4 -7 4 -15z m-78 -110 c4 -16 13
-66 18 -110 6 -44 14 -97 17 -118 5 -34 3 -38 -13 -35 -11 2 -18 10 -16 16 1
7 -5 12 -13 12 -8 0 -15 8 -15 18 0 10 -6 24 -12 30 -10 10 -10 15 1 21 8 5
21 7 30 4 12 -3 11 -1 -3 11 -10 8 -24 17 -30 20 -8 3 -7 7 2 14 10 7 10 11
-3 22 -20 17 -21 62 0 54 8 -4 15 -1 15 5 0 6 -4 11 -10 11 -5 0 -10 7 -10 15
0 8 -4 15 -10 15 -5 0 -10 7 -10 16 0 11 8 14 27 12 20 -2 29 -10 35 -33z m91
9 c-3 -8 -12 -13 -20 -10 -8 3 -20 6 -26 6 -19 0 16 20 35 20 12 0 15 -5 11
-16z m143 -181 c16 -54 27 -146 28 -235 1 -21 4 -38 9 -38 4 0 7 -5 7 -12 0
-6 -7 -4 -18 5 -10 10 -26 17 -34 17 -32 0 -48 12 -48 36 0 13 5 24 11 24 7 0
0 9 -15 21 -15 12 -35 19 -46 16 -14 -3 -21 1 -26 17 -4 11 -11 24 -16 27 -5
3 -11 23 -13 44 -2 21 -7 55 -10 76 -7 38 -6 38 32 44 21 4 45 8 53 10 60 12
68 7 86 -52z m-231 -133 c-3 -5 -10 -10 -16 -10 -5 0 -9 5 -9 10 0 6 7 10 16
10 8 0 12 -4 9 -10z m95 -44 c0 -17 5 -23 18 -22 11 0 17 -6 18 -19 0 -11 4
-28 8 -38 6 -12 4 -23 -4 -30 -10 -9 -14 -9 -17 1 -3 6 -9 10 -13 7 -5 -3 -11
16 -15 42 -3 27 -7 58 -9 70 -2 12 1 20 5 17 5 -3 9 -16 9 -28z m170 -716 c0
-5 -2 -10 -4 -10 -3 0 -8 5 -11 10 -3 6 -1 10 4 10 6 0 11 -4 11 -10z m-142
-7 c-10 -2 -26 -2 -35 0 -10 3 -2 5 17 5 19 0 27 -2 18 -5z m152 -23 c0 -5 -4
-10 -10 -10 -5 0 -10 5 -10 10 0 6 5 10 10 10 6 0 10 -4 10 -10z m90 0 c0 -5
-5 -10 -11 -10 -5 0 -7 5 -4 10 3 6 8 10 11 10 2 0 4 -4 4 -10z m-500 -10 c0
-5 -5 -10 -11 -10 -5 0 -7 5 -4 10 3 6 8 10 11 10 2 0 4 -4 4 -10z m531 -67
c22 -49 28 -114 32 -331 2 -77 -1 -102 -11 -102 -8 0 -12 12 -10 36 1 19 -3
38 -9 42 -15 10 -43 68 -36 76 4 3 1 6 -6 6 -8 0 -10 7 -6 20 4 12 -2 38 -14
63 -11 23 -23 55 -27 71 -6 24 -4 28 9 23 20 -7 30 21 21 57 -9 35 4 85 17 65
7 -12 9 -11 9 4 0 28 8 20 31 -30z m-781 -77 c0 -3 -4 -8 -10 -11 -5 -3 -10
-1 -10 4 0 6 5 11 10 11 6 0 10 -2 10 -4z m638 -36 c1 -22 -2 -40 -6 -40 -13
0 -32 39 -22 45 5 3 7 12 3 20 -3 9 1 15 9 15 10 0 15 -13 16 -40z m-688 -85
c0 -8 -11 -22 -24 -32 -13 -11 -25 -27 -27 -36 -5 -21 -24 -9 -33 20 -6 18 -4
20 14 16 14 -4 20 -1 20 11 0 10 5 26 11 37 8 16 13 18 25 8 8 -6 14 -17 14
-24z m144 -5 c16 -6 27 -6 31 0 11 18 65 -19 78 -53 5 -14 0 -13 -27 8 -49 37
-65 29 -26 -13 30 -32 4 -27 -40 8 -21 17 -45 30 -53 30 -8 0 -17 7 -21 15 -6
18 19 20 58 5z m144 -26 c-4 -3 -12 5 -18 18 -12 22 -12 22 6 6 10 -10 15 -20
12 -24z m55 -51 c11 -13 17 -26 13 -30 -4 -4 -11 -1 -15 6 -5 7 -13 11 -19 7
-6 -4 -8 2 -4 16 3 12 1 19 -4 15 -6 -3 -11 6 -12 21 -1 25 -1 25 10 7 6 -11
20 -30 31 -42z m-429 -32 c-2 -2 -11 -1 -20 3 -14 5 -14 9 -3 22 12 14 14 14
20 -3 3 -10 5 -20 3 -22z m90 -69 c90 -44 107 -59 46 -42 -32 9 -60 3 -32 -7
7 -3 25 -15 40 -27 15 -13 42 -31 59 -41 22 -13 29 -22 20 -27 -7 -4 2 -13 28
-24 29 -13 35 -19 22 -22 -18 -4 -18 -5 -1 -23 9 -10 21 -16 26 -13 6 4 5 10
-3 15 -11 7 -10 9 4 9 19 0 23 -15 7 -25 -5 -3 -10 -11 -10 -16 0 -6 5 -7 10
-4 6 3 10 -1 10 -9 0 -22 -10 -20 -41 10 -23 22 -30 24 -49 14 -19 -10 -24
-10 -32 4 -5 9 -19 16 -31 16 -18 0 -19 2 -7 11 11 8 7 9 -17 5 -22 -4 -35 -1
-40 8 -10 18 -103 70 -103 58 0 -5 7 -15 15 -22 8 -7 15 -19 15 -27 0 -8 14
-20 31 -27 26 -11 28 -14 15 -25 -22 -19 -51 1 -82 57 -15 26 -38 58 -51 71
-13 12 -22 25 -20 27 2 2 30 -9 63 -26 32 -16 69 -30 81 -30 12 0 25 -5 28
-10 4 -6 11 -8 16 -4 5 3 27 -9 49 -26 55 -43 50 -30 -11 31 -39 39 -45 49
-27 44 21 -5 20 -4 -5 12 -15 10 -29 25 -32 34 -3 9 -20 21 -38 27 -17 5 -24
10 -14 11 9 1 17 6 17 12 0 6 -12 8 -27 6 -24 -4 -28 -1 -29 20 -1 13 1 23 5
21 3 -2 46 -22 95 -46z m-124 8 c0 -5 -4 -10 -10 -10 -5 0 -10 5 -10 10 0 6 5
10 10 10 6 0 10 -4 10 -10z m-70 -15 c18 -22 5 -30 -19 -13 -12 8 -18 18 -14
21 10 11 19 8 33 -8z m607 -70 c14 -30 9 -31 -17 -5 -23 23 -25 30 -7 30 6 0
17 -11 24 -25z m462 -22 c14 -48 14 -93 1 -93 -11 0 -13 11 -10 52 1 14 -3 29
-9 33 -14 8 -14 45 -1 45 5 0 14 -17 19 -37z m-968 -123 c24 -26 42 -38 52
-34 10 3 22 -4 31 -19 9 -13 29 -30 44 -37 17 -8 22 -14 14 -17 -7 -3 -22 2
-32 12 -16 15 -34 22 -65 24 -5 1 -4 5 3 10 10 6 4 10 -18 15 -19 3 -34 13
-37 25 -2 10 -16 24 -29 31 -26 14 -32 30 -12 30 7 0 29 -18 49 -40z m133 -19
c3 -5 -1 -12 -10 -15 -10 -4 -13 -2 -8 6 5 7 0 9 -14 6 -12 -4 -22 -2 -22 3 0
12 47 12 54 0z m36 -20 c0 -5 10 -12 23 -14 21 -4 21 -4 1 -6 -12 0 -27 6 -34
14 -9 10 -9 15 -1 15 6 0 11 -4 11 -9z m205 -21 c23 -26 8 -26 -25 0 -18 14
-21 20 -9 20 9 0 24 -9 34 -20z m615 -17 c0 -39 -9 -36 -28 10 -10 24 -10 27
8 27 16 0 20 -7 20 -37z m-310 -2 c0 -4 -11 -6 -25 -3 -14 2 -25 6 -25 8 0 2
11 4 25 4 14 0 25 -4 25 -9z m-40 -32 c0 -11 -28 -24 -36 -17 -2 3 -2 12 2 21
6 16 34 12 34 -4z m12 -21 c-7 -7 -12 -8 -12 -2 0 14 12 26 19 19 2 -3 -1 -11
-7 -17z m13 -38 c4 -6 15 -8 25 -5 12 4 23 -1 32 -14 8 -10 30 -22 51 -26 20
-4 37 -11 37 -17 0 -5 -4 -6 -10 -3 -14 9 -13 -8 2 -23 18 -18 0 -27 -19 -10
-10 9 -27 18 -38 20 -12 2 -21 13 -23 26 -4 23 -18 30 -24 12 -2 -6 -16 3 -33
20 -16 16 -24 30 -17 30 6 0 14 -5 17 -10z m-91 -219 c-2 -3 -12 3 -22 13 -16
17 -16 18 5 5 12 -7 20 -15 17 -18z m251 10 c3 -5 1 -12 -5 -16 -5 -3 -10 1
-10 9 0 18 6 21 15 7z"/>
<path d="M4041 2814 c0 -11 3 -14 6 -6 3 7 2 16 -1 19 -3 4 -6 -2 -5 -13z"/>
<path d="M4070 2801 c0 -17 29 -51 43 -51 3 0 1 13 -4 29 -12 34 -39 50 -39
22z"/>
<path d="M4110 2720 c0 -5 5 -10 11 -10 5 0 7 5 4 10 -3 6 -8 10 -11 10 -2 0
-4 -4 -4 -10z"/>
<path d="M4170 2635 c0 -9 6 -12 15 -9 8 4 12 10 9 15 -8 14 -24 10 -24 -6z"/>
<path d="M4066 2612 c-2 -4 -1 -14 5 -22 7 -12 9 -10 9 8 0 23 -5 28 -14 14z"/>
<path d="M4360 1594 c0 -8 5 -12 10 -9 6 4 8 11 5 16 -9 14 -15 11 -15 -7z"/>
<path d="M4361 1504 c0 -11 3 -14 6 -6 3 7 2 16 -1 19 -3 4 -6 -2 -5 -13z"/>
<path d="M3650 1240 c0 -5 5 -10 11 -10 5 0 7 5 4 10 -3 6 -8 10 -11 10 -2 0
-4 -4 -4 -10z"/>
<path d="M2396 3901 c-3 -5 -3 -19 2 -30 7 -20 8 -20 19 -2 10 15 9 22 -2 31
-8 7 -16 7 -19 1z"/>
<path d="M1905 3850 c-3 -5 -1 -10 4 -10 6 0 11 5 11 10 0 6 -2 10 -4 10 -3 0
-8 -4 -11 -10z"/>
<path d="M2721 3834 c0 -11 3 -14 6 -6 3 7 2 16 -1 19 -3 4 -6 -2 -5 -13z"/>
<path d="M2738 3831 c-4 -12 -11 -20 -17 -17 -5 3 -15 0 -23 -7 -7 -7 -21 -16
-30 -20 -10 -3 -18 -11 -18 -17 0 -6 -4 -9 -9 -5 -10 6 -28 -22 -26 -40 3 -20
38 -84 45 -80 3 2 19 -9 34 -26 15 -16 40 -31 54 -34 15 -3 43 -10 63 -15 60
-16 121 -12 148 11 19 15 22 22 12 28 -9 6 -5 10 13 15 14 3 26 11 26 16 0 5
6 7 13 5 6 -3 19 0 27 6 13 8 12 12 -7 26 -13 8 -23 22 -23 29 0 8 -4 14 -10
14 -5 0 -10 6 -10 13 0 55 -213 141 -240 97 -6 -10 -9 -8 -12 6 -3 17 -5 16
-10 -5z m192 -131 c0 -5 -4 -10 -10 -10 -5 0 -10 5 -10 10 0 6 5 10 10 10 6 0
10 -4 10 -10z"/>
<path d="M1871 3789 c-1 -9 -7 -28 -14 -42 -12 -23 -14 -24 -25 -9 -10 16 -11
16 -11 0 -1 -10 -8 -18 -18 -18 -26 0 -101 -48 -108 -70 -3 -11 -12 -20 -20
-20 -7 0 -20 -11 -28 -24 -9 -13 -23 -31 -32 -40 -9 -9 -12 -16 -6 -16 9 0
-19 -37 -49 -65 -37 -34 -51 -45 -59 -45 -11 0 -21 -25 -20 -48 0 -11 2 -12 6
-4 2 6 15 12 28 12 13 0 36 6 52 14 65 32 82 38 97 33 9 -4 16 -13 16 -21 0
-15 63 -31 80 -21 6 3 10 -3 10 -14 0 -12 -4 -21 -8 -21 -4 0 -24 -15 -44 -34
-34 -32 -37 -39 -37 -90 0 -53 2 -56 25 -56 37 0 60 15 74 50 7 16 16 30 20
30 4 0 20 18 36 41 21 31 25 42 15 48 -9 6 -7 10 8 14 12 3 21 13 21 23 0 9
26 51 58 93 85 110 112 156 112 193 0 39 -36 71 -51 47 -6 -11 -11 -11 -21 -1
-6 6 -25 12 -41 12 -27 0 -28 2 -22 33 4 21 3 27 -3 18 -8 -11 -10 -11 -15 0
-4 9 -6 7 -7 -6 l-1 -20 -9 20 c-7 16 -9 16 -9 4z m-30 -396 c-12 -20 -14 -14
-5 12 4 9 9 14 11 11 3 -2 0 -13 -6 -23z m-25 -39 c-3 -9 -6 -20 -6 -25 0 -5
-7 -9 -16 -9 -10 0 -12 4 -7 13 4 6 8 15 9 20 3 16 4 17 15 17 6 0 8 -7 5 -16z
m-31 -63 c-3 -6 -11 -8 -17 -5 -6 4 -5 9 3 15 16 10 23 4 14 -10z m-75 -7 c0
-8 -4 -12 -10 -9 -5 3 -10 10 -10 16 0 5 5 9 10 9 6 0 10 -7 10 -16z"/>
<path d="M3335 3651 c-6 -44 -3 -57 31 -122 51 -99 94 -159 115 -159 27 0 49
-11 49 -25 0 -14 29 -29 38 -20 3 3 0 5 -7 5 -7 0 -11 6 -8 14 4 9 -7 25 -27
40 -18 13 -46 51 -61 83 -16 32 -37 65 -47 74 -10 9 -18 26 -18 37 0 12 -10
28 -22 36 -18 13 -19 16 -6 21 9 4 18 15 21 26 4 15 -1 23 -19 30 -14 5 -27 9
-29 9 -2 0 -6 -22 -10 -49z"/>
<path d="M4255 3660 c-3 -5 -1 -10 4 -10 6 0 11 5 11 10 0 6 -2 10 -4 10 -3 0
-8 -4 -11 -10z"/>
<path d="M1377 3623 c-9 -2 -15 -9 -12 -14 4 -5 -14 -9 -39 -9 -25 0 -48 5
-51 10 -9 15 -45 12 -45 -4 0 -7 10 -21 23 -30 l22 -16 -25 6 c-28 6 -87 -35
-62 -43 6 -3 12 -13 12 -23 0 -10 8 -20 18 -23 13 -3 10 -7 -13 -16 -37 -14
-71 -67 -55 -86 7 -8 7 -16 2 -19 -5 -3 -10 -16 -10 -28 -2 -37 -7 -55 -21
-72 -7 -9 -10 -16 -5 -16 5 0 1 -5 -9 -11 -14 -8 -15 -14 -7 -24 9 -10 5 -17
-17 -27 -15 -8 -27 -19 -26 -25 3 -14 -43 -26 -68 -18 -26 9 -24 -12 2 -26 13
-7 24 -7 28 -2 9 15 52 35 58 29 4 -3 -2 -16 -13 -28 -20 -23 -21 -23 32 -2
16 7 16 2 -2 -71 -17 -73 -16 -76 12 -48 17 17 17 16 10 -12 -4 -17 -9 -38
-12 -48 -5 -16 -3 -17 14 -8 29 16 32 4 8 -39 -24 -45 -41 -52 -34 -15 7 33 2
32 -17 -5 -16 -31 -21 -54 -6 -32 7 12 12 12 30 1 22 -15 28 -29 11 -29 -5 0
-10 -8 -10 -17 0 -9 -6 -24 -13 -32 -8 -10 -11 -28 -8 -45 l6 -28 25 21 c21
17 22 20 8 21 -19 0 -26 20 -8 20 6 0 10 6 10 13 0 6 11 26 25 42 39 47 39 48
52 83 9 26 9 32 -3 32 -11 0 -10 4 3 20 9 10 18 26 19 35 1 9 6 24 10 33 4 9
8 28 9 42 1 22 32 99 56 140 13 22 32 64 33 72 1 4 7 13 14 20 6 6 12 16 12
21 0 4 12 24 27 43 24 32 27 47 33 142 6 107 3 153 -9 151 -3 -1 -14 -3 -24
-6z"/>
<path d="M741 3428 c-1 -16 4 -28 9 -28 12 0 12 8 0 35 -8 18 -9 17 -9 -7z"/>
<path d="M745 3380 c3 -5 8 -10 11 -10 2 0 4 5 4 10 0 6 -5 10 -11 10 -5 0 -7
-4 -4 -10z"/>
<path d="M1651 3370 c-32 -7 -41 -55 -12 -63 14 -3 18 -1 14 10 -3 8 2 20 12
27 24 17 15 34 -14 26z"/>
<path d="M835 3281 c39 -15 96 -42 128 -59 64 -35 67 -36 67 -23 0 6 -30 24
-67 41 -88 41 -101 46 -142 59 -64 21 -56 10 14 -18z"/>
<path d="M3690 3297 c0 -5 6 -15 14 -23 8 -7 16 -19 19 -26 2 -7 7 -10 11 -7
4 4 -4 20 -18 35 -14 16 -26 25 -26 21z"/>
<path d="M3731 3283 c7 -10 15 -20 16 -22 2 -2 3 3 3 11 0 9 -7 19 -16 22 -15
6 -15 4 -3 -11z"/>
<path d="M3560 3281 c0 -5 5 -13 10 -16 6 -4 8 -10 5 -14 -2 -5 4 -16 15 -26
11 -10 20 -24 20 -32 0 -7 7 -13 15 -13 20 0 19 19 -5 57 -19 32 -60 62 -60
44z"/>
<path d="M980 3176 c0 -9 7 -19 15 -23 25 -9 27 2 5 22 -18 17 -20 17 -20 1z"/>
<path d="M3165 2880 c3 -5 8 -10 11 -10 2 0 4 5 4 10 0 6 -5 10 -11 10 -5 0
-7 -4 -4 -10z"/>
<path d="M820 2840 c8 -5 33 -12 55 -16 22 -3 52 -13 67 -20 31 -16 48 -18 48
-5 0 5 -38 18 -85 30 -93 23 -107 25 -85 11z"/>
<path d="M1523 2844 c4 -4 2 -13 -5 -21 -17 -21 -3 -25 16 -4 16 17 16 19 -1
25 -9 4 -14 4 -10 0z"/>
<path d="M1680 2840 c-8 -5 -10 -10 -5 -10 6 0 17 5 25 10 8 5 11 10 5 10 -5
0 -17 -5 -25 -10z"/>
<path d="M1626 2794 c-5 -14 -4 -15 9 -4 17 14 19 20 6 20 -5 0 -12 -7 -15
-16z"/>
<path d="M1480 2790 c0 -5 5 -10 11 -10 5 0 7 5 4 10 -3 6 -8 10 -11 10 -2 0
-4 -4 -4 -10z"/>
<path d="M1511 2767 c-13 -21 -12 -21 5 -5 10 10 16 20 13 22 -3 3 -11 -5 -18
-17z"/>
<path d="M1445 2749 c-4 -6 -5 -12 -2 -15 2 -3 7 2 10 11 7 17 1 20 -8 4z"/>
<path d="M742 2540 c0 -14 2 -19 5 -12 2 6 2 18 0 25 -3 6 -5 1 -5 -13z"/>
<path d="M808 2483 c7 -3 16 -2 19 1 4 3 -2 6 -13 5 -11 0 -14 -3 -6 -6z"/>
<path d="M3700 2300 c20 -13 43 -13 35 0 -3 6 -16 10 -28 10 -18 0 -19 -2 -7
-10z"/>
<path d="M790 2210 c0 -5 5 -10 11 -10 5 0 7 5 4 10 -3 6 -8 10 -11 10 -2 0
-4 -4 -4 -10z"/>
<path d="M1435 2200 l-40 -7 47 -2 c26 0 50 4 53 9 7 11 1 11 -60 0z"/>
<path d="M1348 2193 c7 -3 16 -2 19 1 4 3 -2 6 -13 5 -11 0 -14 -3 -6 -6z"/>
<path d="M1268 2183 c6 -2 18 -2 25 0 6 3 1 5 -13 5 -14 0 -19 -2 -12 -5z"/>
<path d="M1338 2163 c7 -3 16 -2 19 1 4 3 -2 6 -13 5 -11 0 -14 -3 -6 -6z"/>
<path d="M1265 2151 c-14 -6 -8 -8 22 -7 23 0 39 4 37 8 -6 10 -33 9 -59 -1z"/>
<path d="M120 2120 c0 -5 5 -10 10 -10 6 0 10 5 10 10 0 6 -4 10 -10 10 -5 0
-10 -4 -10 -10z"/>
<path d="M4180 2086 c0 -14 5 -26 10 -26 6 0 10 9 10 19 0 11 -4 23 -10 26 -6
4 -10 -5 -10 -19z"/>
<path d="M1528 2073 c7 -3 16 -2 19 1 4 3 -2 6 -13 5 -11 0 -14 -3 -6 -6z"/>
<path d="M1665 2050 c-19 -7 -19 -7 3 -14 26 -9 41 -1 26 13 -5 5 -18 5 -29 1z"/>
<path d="M3756 1964 c-5 -14 -4 -15 9 -4 17 14 19 20 6 20 -5 0 -12 -7 -15
-16z"/>
<path d="M3798 1973 c7 -3 16 -2 19 1 4 3 -2 6 -13 5 -11 0 -14 -3 -6 -6z"/>
<path d="M3405 1950 c-4 -6 -13 -10 -21 -10 -9 0 -22 -6 -30 -14 -38 -38 -155
-40 -291 -5 -23 6 -47 9 -55 7 -20 -7 36 -39 75 -43 18 -2 52 -8 76 -15 24 -6
60 -10 80 -9 20 2 54 0 76 -4 42 -8 108 14 86 27 -6 4 -20 2 -32 -4 -30 -16
-33 -7 -6 18 13 12 38 24 56 26 42 5 46 10 16 24 -15 7 -27 8 -30 2z"/>
<path d="M3000 1880 c8 -5 22 -9 30 -9 10 0 8 3 -5 9 -27 12 -43 12 -25 0z"/>
<path d="M3100 1861 c0 -11 31 -24 39 -16 3 3 -1 10 -9 15 -19 12 -30 12 -30
1z"/>
<path d="M3565 1830 c-3 -4 -13 -6 -24 -3 -13 3 -20 -2 -24 -17 -5 -20 -4 -21
12 -6 10 9 20 13 24 10 8 -8 57 4 57 14 0 11 -38 13 -45 2z"/>
<path d="M2810 1810 c11 -20 30 -28 30 -12 0 11 -22 32 -32 32 -5 0 -4 -9 2
-20z"/>
<path d="M926 1789 c-27 -21 -34 -39 -16 -39 6 0 14 8 17 18 4 9 14 22 22 29
9 7 13 13 10 13 -4 0 -18 -9 -33 -21z"/>
<path d="M3033 1723 c-33 -6 -31 -50 2 -65 29 -13 38 -7 40 25 1 14 9 23 23
25 12 2 20 8 17 13 -6 9 -41 10 -82 2z"/>
<path d="M720 1670 c0 -6 7 -10 15 -10 8 0 15 2 15 4 0 2 -7 6 -15 10 -8 3
-15 1 -15 -4z"/>
<path d="M2580 1650 c0 -5 5 -10 10 -10 6 0 10 5 10 10 0 6 -4 10 -10 10 -5 0
-10 -4 -10 -10z"/>
<path d="M2770 1646 c0 -13 34 -36 53 -36 19 0 17 3 -11 20 -33 20 -42 24 -42
16z"/>
<path d="M182 1555 c-11 -12 -10 -15 3 -15 8 0 15 7 15 15 0 18 -2 18 -18 0z"/>
<path d="M730 1521 c0 -6 5 -13 10 -16 6 -3 10 1 10 9 0 9 -4 16 -10 16 -5 0
-10 -4 -10 -9z"/>
<path d="M880 1511 c0 -6 5 -13 10 -16 6 -3 10 1 10 9 0 9 -4 16 -10 16 -5 0
-10 -4 -10 -9z"/>
<path d="M171 1494 c0 -11 3 -14 6 -6 3 7 2 16 -1 19 -3 4 -6 -2 -5 -13z"/>
<path d="M883 1433 c-4 -16 -6 -36 -4 -46 1 -10 -3 -25 -9 -33 -18 -20 5 -44
42 -44 28 0 29 1 12 18 -17 16 -17 17 4 20 26 4 28 15 7 32 -9 7 -13 15 -11
18 6 5 -21 62 -29 62 -3 0 -8 -12 -12 -27z"/>
<path d="M940 1429 c0 -5 5 -7 10 -4 6 3 10 8 10 11 0 2 -4 4 -10 4 -5 0 -10
-5 -10 -11z"/>
<path d="M3281 1239 c-1 -19 23 -42 32 -32 12 11 8 23 -7 23 -8 0 -17 6 -19
13 -4 7 -6 6 -6 -4z"/>
<path d="M431 1224 c0 -11 3 -14 6 -6 3 7 2 16 -1 19 -3 4 -6 -2 -5 -13z"/>
<path d="M1596 1218 c-10 -38 -6 -45 9 -18 17 29 18 40 6 40 -5 0 -11 -10 -15
-22z"/>
<path d="M642 1201 c-22 -11 -31 -21 -28 -33 3 -13 -2 -18 -19 -18 -36 0 -60
11 -44 21 23 14 3 21 -32 11 -29 -7 -34 -12 -31 -36 2 -15 -2 -34 -8 -41 -14
-17 -2 -45 17 -38 12 5 12 7 2 14 -10 6 -9 9 4 15 11 4 25 0 36 -10 10 -9 32
-16 49 -16 33 0 50 14 30 24 -7 3 0 4 15 1 35 -7 56 13 61 55 4 35 -3 71 -13
69 -3 -1 -21 -9 -39 -18z"/>
<path d="M3330 1203 c0 -5 9 -18 20 -28 11 -10 20 -16 20 -13 0 3 -9 15 -20
28 -11 13 -20 19 -20 13z"/>
<path d="M372 1153 c-18 -9 -32 -22 -32 -29 0 -8 -4 -14 -10 -14 -5 0 -10 5
-10 12 0 6 -3 9 -6 5 -4 -3 10 -25 30 -48 31 -37 36 -48 32 -81 -7 -57 -15
-63 -43 -36 -28 26 -44 58 -35 73 10 16 11 51 1 66 -7 11 -14 8 -38 -16 -39
-38 -43 -67 -19 -134 15 -46 16 -59 6 -83 -7 -15 -18 -28 -24 -28 -15 0 -8
-68 10 -120 7 -19 11 -55 10 -79 -4 -39 -2 -43 16 -38 16 4 25 -3 40 -33 11
-22 20 -53 20 -69 0 -16 5 -31 10 -33 6 -2 13 -22 15 -46 3 -32 1 -42 -10 -42
-10 0 -15 11 -16 33 -1 21 -3 25 -6 12 -3 -11 -9 -25 -14 -31 -6 -7 -11 -28
-13 -48 -3 -47 -14 -56 -35 -29 -17 20 -20 21 -40 7 -24 -17 -30 -67 -7 -58 8
3 17 0 21 -6 4 -7 -2 -14 -14 -17 -19 -5 -32 -35 -13 -32 4 1 12 1 19 0 15 -1
5 -31 -11 -31 -16 0 -56 -45 -56 -63 0 -15 -45 -57 -61 -57 -5 0 -9 7 -9 16 0
12 -7 14 -29 9 -25 -5 -29 -3 -33 20 -3 14 3 40 14 61 l19 36 -23 -4 c-22 -3
-23 -7 -26 -100 l-3 -98 86 0 85 0 0 48 c0 34 3 43 10 32 5 -8 10 -30 10 -47
l0 -33 364 0 364 0 26 31 c39 46 35 59 -14 46 -42 -12 -67 -2 -37 14 21 12 23
33 2 26 -25 -10 -27 11 -3 34 l23 22 -27 -7 c-25 -6 -28 -4 -28 19 0 18 -7 26
-25 31 -15 4 -25 13 -25 24 0 10 -11 25 -25 34 -18 12 -24 23 -20 36 3 10 1
21 -5 25 -14 9 -13 81 3 107 6 12 20 31 30 42 44 50 55 128 28 198 -9 25 -13
27 -36 16 -14 -6 -25 -19 -25 -29 0 -10 -6 -21 -12 -25 -7 -4 -10 -4 -6 1 4 4
3 16 -3 26 -8 15 -14 17 -35 9 -33 -13 -56 0 -23 13 13 6 33 12 44 14 23 4 37
23 30 41 -3 8 -5 20 -5 29 0 9 -6 13 -15 10 -8 -4 -17 -2 -20 3 -7 11 -45 -8
-58 -27 -11 -18 -24 -16 -31 4 -4 10 -1 22 6 28 28 22 58 73 45 78 -9 4 -9 7
1 18 18 19 15 29 -8 29 -11 0 -20 -5 -20 -12 0 -6 -9 -2 -20 10 -24 25 -25 25
-51 12 -15 -9 -19 -7 -19 7 -1 14 -6 12 -26 -12 -26 -31 -61 -104 -56 -118 3
-12 -28 -21 -38 -11 -4 5 -2 41 6 79 21 110 3 266 -34 289 -4 2 -22 -2 -40
-11z m19 -352 c9 -19 14 -42 12 -51 -2 -9 3 -22 11 -29 20 -17 22 -81 2 -81
-7 0 -19 15 -26 33 -6 17 -18 48 -25 67 -8 19 -17 50 -20 68 -6 29 -4 33 11
30 11 -2 26 -19 35 -37z m326 -63 c-3 -8 -6 -5 -6 6 -1 11 2 17 5 13 3 -3 4
-12 1 -19z m-102 -67 c-3 -6 -11 -11 -17 -11 -6 0 -6 6 2 15 14 17 26 13 15
-4z"/>
<path d="M3380 1155 c0 -9 21 -27 49 -43 13 -8 20 -9 17 -3 -9 14 -66 54 -66
46z"/>
<path d="M1510 1119 c0 -5 5 -7 10 -4 6 3 10 8 10 11 0 2 -4 4 -10 4 -5 0 -10
-5 -10 -11z"/>
<path d="M2835 1095 c11 -8 26 -19 33 -25 9 -8 12 -7 12 3 0 19 -21 37 -44 37
-21 -1 -21 -1 -1 -15z"/>
<path d="M1571 1064 c0 -11 3 -14 6 -6 3 7 2 16 -1 19 -3 4 -6 -2 -5 -13z"/>
<path d="M2770 1029 c1 -13 10 -40 21 -59 11 -19 18 -27 15 -18 -3 12 -1 15
10 11 21 -8 18 2 -16 49 -27 36 -30 38 -30 17z"/>
<path d="M3295 1035 c89 -61 108 -83 63 -70 -16 4 -19 4 -9 -3 7 -5 11 -14 7
-20 -3 -6 2 -15 11 -21 10 -5 15 -12 11 -16 -9 -9 -48 17 -48 32 0 7 -5 13
-10 13 -15 0 7 -40 26 -47 8 -3 13 -12 10 -20 -3 -8 -2 -11 3 -8 5 3 12 1 16
-5 3 -5 15 -10 26 -10 10 0 19 -4 19 -9 0 -8 61 -27 109 -34 26 -4 22 19 -6
33 -16 8 -41 24 -58 36 -16 11 -39 24 -49 28 -32 11 -12 16 25 6 18 -6 50 -10
70 -10 23 0 56 -12 93 -35 68 -41 72 -42 72 -15 0 11 -5 20 -11 20 -15 0 -133
58 -190 95 -61 38 -85 48 -85 34 0 -6 -12 -2 -27 9 -16 10 -41 22 -58 25 -27
5 -28 4 -10 -8z"/>
<path d="M3710 991 c0 -5 7 -14 15 -21 10 -9 15 -9 15 -1 0 6 -5 11 -11 11 -5
0 -7 5 -4 10 3 6 1 10 -4 10 -6 0 -11 -4 -11 -9z"/>
<path d="M3530 985 c0 -2 17 -13 38 -23 20 -10 51 -26 67 -36 l30 -18 -25 21
c-38 33 -110 70 -110 56z"/>
<path d="M588 958 c9 -9 15 -9 24 0 9 9 7 12 -12 12 -19 0 -21 -3 -12 -12z"/>
<path d="M2610 910 c0 -15 43 -80 53 -80 5 0 7 3 5 8 -36 74 -58 102 -58 72z"/>
<path d="M3932 894 c10 -10 20 -16 22 -13 3 3 -5 11 -17 18 -21 13 -21 12 -5
-5z"/>
<path d="M0 834 c0 -20 6 -34 16 -38 26 -10 27 -1 5 35 l-21 34 0 -31z"/>
<path d="M3314 827 c-8 -9 2 -16 40 -29 59 -21 56 -21 56 -8 0 6 -6 10 -13 10
-8 0 -24 9 -37 20 -26 23 -31 24 -46 7z"/>
<path d="M2670 796 c0 -7 23 -36 52 -64 44 -43 48 -50 27 -46 -13 2 -17 1 -9
-2 8 -4 26 -15 40 -24 14 -9 31 -15 39 -12 8 3 11 0 7 -7 -5 -7 1 -11 14 -11
12 0 18 -4 15 -10 -3 -6 1 -7 10 -4 8 4 22 1 30 -6 17 -14 28 -10 17 6 -10 14
-61 45 -91 55 -21 7 -18 8 12 3 45 -6 48 8 7 33 -16 9 -30 20 -30 23 0 3 -10
6 -22 7 -13 1 -32 13 -43 26 -18 22 -55 47 -69 47 -3 0 -6 -6 -6 -14z"/>
<path d="M3892 784 c10 -10 20 -16 22 -13 3 3 -5 11 -17 18 -21 13 -21 12 -5
-5z"/>
<path d="M3285 770 c3 -5 16 -10 28 -9 21 0 21 1 2 9 -28 12 -37 12 -30 0z"/>
<path d="M3550 746 c0 -6 91 -56 101 -56 24 0 4 20 -40 39 -50 21 -61 24 -61
17z"/>
<path d="M2695 720 c3 -5 8 -10 11 -10 2 0 4 5 4 10 0 6 -5 10 -11 10 -5 0 -7
-4 -4 -10z"/>
<path d="M3701 695 c19 -19 36 -29 38 -23 4 13 -43 58 -61 58 -6 0 4 -16 23
-35z"/>
<path d="M868 669 c-2 -8 -2 -25 2 -39 6 -25 6 -25 14 -3 8 25 -7 66 -16 42z"/>
<path d="M2590 570 c0 -5 5 -10 10 -10 6 0 10 5 10 10 0 6 -4 10 -10 10 -5 0
-10 -4 -10 -10z"/>
<path d="M2650 506 c0 -2 7 -7 16 -10 8 -3 12 -2 9 4 -6 10 -25 14 -25 6z"/>
<path d="M2735 360 c3 -5 14 -10 23 -10 15 0 15 2 2 10 -20 13 -33 13 -25 0z"/>
<path d="M3200 220 c14 -11 40 -35 58 -52 l32 -33 -6 35 c-4 26 -3 31 5 20 9
-12 11 -11 11 7 0 17 -9 24 -37 32 -21 6 -49 11 -63 11 l-25 -1 25 -19z"/>
<path d="M2884 158 c3 -7 9 -21 12 -30 4 -10 14 -18 24 -18 9 0 27 -9 40 -20
32 -28 35 -25 10 10 -34 48 -103 94 -86 58z"/>
<path d="M3680 34 c0 -17 18 -36 30 -32 7 2 4 10 -9 22 -12 11 -21 15 -21 10z"/>
</g>
</svg>
